<?xml version="1.0" encoding="UTF-8"?>
<svg id="Layer_1" data-name="Layer 1" xmlns="http://www.w3.org/2000/svg" viewBox="0 0 572.616 191.408">
  <g>
    <g>
      <path d="M527.016,0H45.625C43.871,0,42.137,0,40.387.01c-1.465.01-2.918.037-4.397.061-3.213.038-6.419.32-9.589.846-3.166.537-6.232,1.548-9.096,3-2.86,1.465-5.474,3.368-7.746,5.64-2.284,2.266-4.188,4.885-5.638,7.757-1.454,2.866-2.463,5.937-2.991,9.108-.533,3.166-.819,6.369-.858,9.58-.044,1.467-.049,2.939-.072,4.406v110.606c.023,1.486.028,2.925.072,4.411.038,3.211.325,6.413.858,9.579.526,3.172,1.535,6.245,2.991,9.112,1.45,2.863,3.354,5.471,5.638,7.725,2.263,2.283,4.878,4.187,7.746,5.64,2.864,1.456,5.93,2.474,9.096,3.018,3.171.521,6.376.804,9.589.846,1.479.033,2.932.051,4.397.051,1.75.01,3.484.01,5.238.01h481.391c1.72,0,3.467,0,5.187-.01,1.458,0,2.953-.019,4.411-.051,3.207-.04,6.406-.323,9.57-.846,3.176-.549,6.254-1.566,9.131-3.018,2.865-1.454,5.477-3.358,7.739-5.64,2.278-2.262,4.186-4.869,5.654-7.725,1.445-2.869,2.444-5.942,2.963-9.112.534-3.167.83-6.369.888-9.579.019-1.486.019-2.926.019-4.411.037-1.738.037-3.467.037-5.234V45.633c0-1.752,0-3.491-.037-5.224,0-1.467,0-2.939-.019-4.407-.058-3.211-.354-6.413-.888-9.58-.52-3.169-1.519-6.24-2.963-9.108-2.954-5.756-7.638-10.442-13.393-13.398-2.878-1.449-5.955-2.46-9.131-3-3.164-.527-6.363-.81-9.57-.846-1.458-.023-2.953-.051-4.411-.061-1.72-.01-3.467-.01-5.187-.01h0Z" style="fill: #a7a6a6; stroke-width: 0px;"/>
      <path d="M40.41,187.221c-1.458,0-2.881-.019-4.327-.051-2.997-.039-5.986-.3-8.944-.78-2.758-.475-5.43-1.359-7.928-2.622-2.475-1.253-4.732-2.895-6.685-4.865-1.981-1.946-3.631-4.204-4.883-6.683-1.266-2.495-2.143-5.169-2.598-7.93-.492-2.966-.759-5.966-.797-8.972-.03-1.009-.07-4.369-.07-4.369V40.408s.042-3.309.07-4.281c.036-3.002.301-5.997.792-8.958.457-2.768,1.334-5.45,2.601-7.953,1.248-2.477,2.888-4.736,4.858-6.689,1.967-1.972,4.232-3.623,6.71-4.893,2.492-1.259,5.159-2.136,7.911-2.603,2.968-.485,5.968-.748,8.975-.785l4.318-.058h491.767l4.369.061c2.98.035,5.952.295,8.893.778,2.781.472,5.475,1.356,7.996,2.622,4.966,2.559,9.007,6.608,11.556,11.58,1.247,2.486,2.11,5.146,2.561,7.89.497,2.986.775,6.004.832,9.031.014,1.355.014,2.811.014,4.259.038,1.794.038,3.502.038,5.224v100.148c0,1.738,0,3.435-.038,5.145,0,1.556,0,2.982-.019,4.449-.056,2.972-.329,5.937-.818,8.869-.446,2.78-1.318,5.476-2.584,7.991-1.261,2.452-2.901,4.69-4.86,6.631-1.955,1.98-4.216,3.632-6.696,4.893-2.513,1.273-5.204,2.16-7.982,2.631-2.958.483-5.948.744-8.944.78-1.402.033-2.869.051-4.294.051l-5.187.01-486.606-.01Z" style="fill: #010101; stroke-width: 0px;"/>
    </g>
    <g id="_Group_" data-name=" Group ">
      <g id="_Group_2" data-name=" Group 2">
        <g id="_Group_3" data-name=" Group 3">
          <path id="_Path_" data-name=" Path " d="M118.524,97.143c.105-8.118,4.36-15.616,11.277-19.868-4.383-6.26-11.461-10.086-19.098-10.325-8.035-.843-15.826,4.808-19.92,4.808-4.174,0-10.478-4.725-17.267-4.585-8.932.289-17.058,5.244-21.404,13.053-9.255,16.023-2.351,39.571,6.514,52.523,4.435,6.342,9.619,13.426,16.402,13.175,6.637-.275,9.116-4.232,17.128-4.232,7.937,0,10.263,4.232,17.184,4.073,7.122-.116,11.609-6.37,15.889-12.772,3.187-4.519,5.639-9.513,7.266-14.798-8.459-3.578-13.959-11.866-13.969-21.051Z" style="fill: #fff; stroke-width: 0px;"/>
          <path id="_Path_2" data-name=" Path 2" d="M105.452,58.432c3.883-4.662,5.796-10.654,5.333-16.703-5.933.623-11.413,3.459-15.349,7.942-3.886,4.423-5.855,10.209-5.473,16.085,6.012.062,11.721-2.637,15.489-7.323Z" style="fill: #fff; stroke-width: 0px;"/>
        </g>
      </g>
      <g>
        <path d="M202.424,129.869h-22.65l-5.439,16.061h-9.594l21.454-59.423h9.968l21.454,59.423h-9.757l-5.435-16.061ZM182.12,122.458h17.954l-8.851-26.066h-.248l-8.856,26.066Z" style="fill: #fff; stroke-width: 0px;"/>
        <path d="M263.95,124.271c0,13.463-7.206,22.113-18.08,22.113-5.621.294-10.915-2.65-13.631-7.58h-.206v21.459h-8.893v-57.656h8.608v7.206h.164c2.837-4.899,8.137-7.842,13.795-7.659,10.995,0,18.244,8.692,18.244,22.118ZM254.809,124.271c0-8.771-4.533-14.538-11.449-14.538-6.795,0-11.365,5.888-11.365,14.538,0,8.729,4.57,14.575,11.365,14.575,6.916,0,11.449-5.724,11.449-14.575Z" style="fill: #fff; stroke-width: 0px;"/>
        <path d="M311.633,124.271c0,13.463-7.206,22.113-18.08,22.113-5.621.294-10.915-2.65-13.631-7.58h-.206v21.459h-8.893v-57.656h8.608v7.206h.164c2.837-4.899,8.137-7.842,13.795-7.659,10.996,0,18.244,8.692,18.244,22.117ZM302.493,124.271c0-8.771-4.533-14.538-11.449-14.538-6.795,0-11.365,5.888-11.365,14.538,0,8.729,4.57,14.575,11.365,14.575,6.916,0,11.449-5.724,11.449-14.575h0Z" style="fill: #fff; stroke-width: 0px;"/>
        <path d="M343.148,129.374c.659,5.893,6.383,9.762,14.206,9.762,7.496,0,12.888-3.869,12.888-9.183,0-4.612-3.252-7.374-10.954-9.267l-7.701-1.855c-10.912-2.636-15.977-7.739-15.977-16.019,0-10.253,8.935-17.295,21.622-17.295,12.556,0,21.164,7.042,21.454,17.295h-8.977c-.537-5.93-5.439-9.51-12.603-9.51s-12.066,3.622-12.066,8.893c0,4.201,3.131,6.673,10.79,8.565l6.547,1.608c12.192,2.883,17.258,7.781,17.258,16.472,0,11.117-8.855,18.08-22.94,18.08-13.178,0-22.075-6.799-22.65-17.547h9.103Z" style="fill: #fff; stroke-width: 0px;"/>
        <path d="M398.828,92.354v10.253h8.239v7.042h-8.239v23.884c0,3.71,1.65,5.439,5.271,5.439.978-.017,1.954-.086,2.925-.206v7c-1.628.304-3.283.442-4.939.411-8.771,0-12.192-3.295-12.192-11.697v-24.832h-6.299v-7.042h6.299v-10.253h8.935Z" style="fill: #fff; stroke-width: 0px;"/>
        <path d="M411.838,124.271c0-13.631,8.028-22.197,20.547-22.197s20.552,8.565,20.552,22.197-7.949,22.197-20.552,22.197-20.547-8.528-20.547-22.197ZM443.876,124.271c0-9.351-4.285-14.87-11.491-14.87s-11.486,5.561-11.486,14.87c0,9.388,4.281,14.865,11.486,14.865s11.491-5.477,11.491-14.865h0Z" style="fill: #fff; stroke-width: 0px;"/>
        <path d="M460.269,102.607h8.482v7.374h.206c1.183-4.747,5.532-8.014,10.421-7.827,1.025-.004,2.047.108,3.047.332v8.318c-1.294-.395-2.643-.577-3.996-.537-4.945-.201-9.116,3.645-9.317,8.59-.019.46-.002.92.05,1.377v25.697h-8.893v-43.324Z" style="fill: #fff; stroke-width: 0px;"/>
        <path d="M523.425,133.206c-1.196,7.865-8.855,13.262-18.655,13.262-12.603,0-20.426-8.444-20.426-21.991s7.865-22.403,20.052-22.403c11.986,0,19.524,8.234,19.524,21.37v3.047h-30.599v.537c-.55,6.207,4.037,11.685,10.244,12.235.469.042.94.054,1.411.036,4.315.404,8.384-2.074,10.005-6.094h8.444ZM493.363,120.275h21.66c.32-5.745-4.078-10.662-9.823-10.982-.267-.015-.535-.019-.803-.014-6.057-.036-10.997,4.845-11.033,10.902,0,.031,0,.062,0,.094Z" style="fill: #fff; stroke-width: 0px;"/>
      </g>
    </g>
  </g>
  <g id="_Group_4" data-name=" Group 4">
    <g>
      <path d="M181.006,41.78c6.958-.499,13.004,4.737,13.503,11.695.06.831.037,1.666-.068,2.493,0,9.122-4.93,14.365-13.435,14.365h-10.313v-28.552h10.313ZM175.127,66.295h5.383c4.949.296,9.2-3.476,9.496-8.425.037-.616.01-1.234-.08-1.844.676-4.925-2.769-9.465-7.694-10.141-.571-.078-1.147-.102-1.722-.07h-5.383v20.48Z" style="fill: #fff; stroke-width: 0px;"/>
      <path d="M218.74,64.514c-1.192,4.064-5.126,6.691-9.337,6.234-5.403.143-9.899-4.122-10.042-9.526-.014-.534.016-1.068.088-1.596-.729-5.44,3.09-10.441,8.531-11.17.465-.062.935-.092,1.404-.088,5.996,0,9.612,4.096,9.612,10.862v1.484h-15.215v.238c-.264,3.134,2.063,5.889,5.197,6.153.18.015.361.022.541.02,2.08.25,4.106-.782,5.126-2.612h4.093ZM203.782,57.57h10.883c.212-2.863-1.937-5.357-4.8-5.569-.168-.012-.336-.017-.503-.013-3.043-.038-5.541,2.398-5.579,5.441,0,.047,0,.094,0,.141h0Z" style="fill: #fff; stroke-width: 0px;"/>
      <path d="M232.582,48.369c4.846,0,8.014,2.255,8.43,6.054h-4.08c-.392-1.582-1.939-2.591-4.351-2.591-2.374,0-4.177,1.126-4.177,2.808,0,1.287,1.089,2.098,3.425,2.633l3.579.829c4.098.951,6.019,2.713,6.019,5.879,0,4.056-3.78,6.767-8.925,6.767s-8.468-2.316-8.846-6.133h4.257c.755,1.87,2.691,2.981,4.687,2.689,2.65,0,4.533-1.187,4.533-2.909,0-1.285-1.009-2.117-3.168-2.631l-3.757-.872c-4.098-.97-5.996-2.808-5.996-6.014,0-3.82,3.5-6.509,8.369-6.509Z" style="fill: #fff; stroke-width: 0px;"/>
      <path d="M261.265,55.827c-.56-2.309-2.722-3.863-5.089-3.659-3.561,0-5.738,2.729-5.738,7.32,0,4.671,2.196,7.46,5.738,7.46,2.347.272,4.529-1.247,5.089-3.542h4.136c-.569,4.537-4.651,7.794-9.201,7.341-5.462.172-10.03-4.116-10.203-9.578-.018-.562.012-1.125.09-1.681-.719-5.378,3.058-10.32,8.436-11.039.548-.073,1.101-.1,1.653-.08,4.587-.423,8.677,2.884,9.225,7.458h-4.136Z" style="fill: #fff; stroke-width: 0px;"/>
      <path d="M269.62,64.239c0-3.879,2.888-6.115,8.014-6.432l5.837-.336v-1.86c0-2.276-1.505-3.561-4.411-3.561-2.374,0-4.019.872-4.491,2.395h-4.117c.435-3.701,3.916-6.075,8.804-6.075,5.402,0,8.449,2.689,8.449,7.241v14.722h-4.094v-3.028h-.336c-1.39,2.211-3.863,3.504-6.472,3.383-3.576.372-6.776-2.225-7.148-5.801-.022-.215-.034-.431-.035-.648ZM283.471,62.397v-1.801l-5.262.336c-2.967.199-4.313,1.208-4.313,3.108,0,1.939,1.682,3.068,3.996,3.068,2.791.283,5.283-1.751,5.565-4.542.006-.056.01-.112.014-.168Z" style="fill: #fff; stroke-width: 0px;"/>
      <path d="M294.364,48.785h4.094v3.304h.318c.94-2.353,3.29-3.832,5.818-3.661.637-.009,1.273.051,1.897.178v4.197c-.78-.167-1.576-.253-2.374-.257-2.777-.249-5.231,1.8-5.48,4.577-.015.162-.021.326-.02.489v12.722h-4.252v-21.548Z" style="fill: #fff; stroke-width: 0px;"/>
      <path d="M311.512,48.785h4.094v3.304h.318c.94-2.353,3.29-3.832,5.818-3.661.637-.009,1.273.051,1.897.178v4.197c-.78-.167-1.576-.253-2.374-.257-2.777-.249-5.231,1.8-5.48,4.577-.015.162-.021.326-.02.489v12.722h-4.252v-21.548Z" style="fill: #fff; stroke-width: 0px;"/>
      <path d="M346.004,64.514c-1.192,4.064-5.126,6.691-9.337,6.234-5.403.143-9.899-4.122-10.042-9.526-.014-.534.016-1.068.088-1.596-.729-5.44,3.09-10.441,8.531-11.17.465-.062.935-.092,1.404-.088,5.996,0,9.612,4.096,9.612,10.862v1.484h-15.216v.238c-.264,3.134,2.063,5.889,5.197,6.153.18.015.361.022.541.02,2.08.25,4.106-.782,5.126-2.612h4.094ZM331.045,57.57h10.883c.212-2.863-1.937-5.357-4.8-5.569-.168-.012-.336-.017-.503-.013-3.043-.038-5.541,2.398-5.58,5.441,0,.047,0,.094,0,.141h0Z" style="fill: #fff; stroke-width: 0px;"/>
      <path d="M351.733,72.489h4.351c.36,1.563,2.159,2.573,5.028,2.573,3.542,0,5.64-1.682,5.64-4.531v-4.136h-.318c-1.36,2.36-3.929,3.759-6.65,3.619-5.5,0-8.902-4.252-8.902-10.704,0-6.57,3.439-10.883,8.944-10.883,2.788-.097,5.398,1.368,6.767,3.799h.336v-3.442h4.075v21.725c0,4.928-3.86,8.054-9.954,8.054-5.383,0-8.865-2.413-9.318-6.075ZM366.831,59.29c0-4.292-2.22-7.042-5.841-7.042-3.659,0-5.715,2.75-5.715,7.042s2.056,7.045,5.715,7.045c3.645,0,5.841-2.729,5.841-7.045Z" style="fill: #fff; stroke-width: 0px;"/>
      <path d="M376.551,64.239c0-3.879,2.888-6.115,8.014-6.432l5.837-.336v-1.86c0-2.276-1.505-3.561-4.411-3.561-2.374,0-4.019.872-4.491,2.395h-4.117c.435-3.701,3.916-6.075,8.804-6.075,5.402,0,8.449,2.689,8.449,7.241v14.722h-4.094v-3.028h-.336c-1.39,2.211-3.863,3.504-6.472,3.383-3.576.372-6.776-2.225-7.148-5.801-.022-.215-.034-.432-.035-.648ZM390.402,62.397v-1.801l-5.262.336c-2.967.199-4.313,1.208-4.313,3.108,0,1.939,1.682,3.068,3.996,3.068,2.791.283,5.283-1.751,5.565-4.542.006-.056.01-.112.014-.168Z" style="fill: #fff; stroke-width: 0px;"/>
      <path d="M401.295,48.785h4.094v3.304h.318c.94-2.353,3.29-3.832,5.818-3.661.637-.009,1.273.051,1.897.178v4.197c-.78-.167-1.576-.253-2.374-.257-2.777-.249-5.231,1.8-5.48,4.577-.015.162-.021.326-.02.489v12.722h-4.252v-21.548Z" style="fill: #fff; stroke-width: 0px;"/>
      <path d="M429.815,48.785h4.094v3.423h.318c1.105-2.52,3.687-4.062,6.43-3.839,3.86-.29,7.224,2.603,7.514,6.463.039.518.02,1.038-.056,1.551v13.949h-4.252v-12.881c0-3.463-1.505-5.185-4.65-5.185-2.727-.127-5.04,1.981-5.167,4.707-.012.251-.004.503.022.753v12.606h-4.252v-21.547Z" style="fill: #fff; stroke-width: 0px;"/>
      <path d="M453.465,64.239c0-3.879,2.888-6.115,8.014-6.432l5.837-.336v-1.86c0-2.276-1.505-3.561-4.411-3.561-2.374,0-4.019.872-4.491,2.395h-4.117c.435-3.701,3.916-6.075,8.804-6.075,5.402,0,8.449,2.689,8.449,7.241v14.722h-4.094v-3.028h-.336c-1.39,2.211-3.863,3.504-6.472,3.383-3.576.372-6.776-2.225-7.148-5.801-.022-.215-.034-.431-.035-.648ZM467.316,62.397v-1.801l-5.262.336c-2.967.199-4.313,1.208-4.313,3.108,0,1.939,1.682,3.068,3.996,3.068,2.791.283,5.283-1.751,5.565-4.542.006-.056.01-.112.014-.168Z" style="fill: #fff; stroke-width: 0px;"/>
    </g>
  </g>
</svg>