<?xml version="1.0" encoding="UTF-8"?>
<svg id="Layer_1" data-name="Layer 1" xmlns="http://www.w3.org/2000/svg" xmlns:xlink="http://www.w3.org/1999/xlink" viewBox="0 0 646 191.408">
  <defs>
    <clipPath id="clippath">
      <rect width="646" height="191.408" style="fill: none; stroke-width: 0px;"/>
    </clipPath>
    <clipPath id="clippath-1">
      <rect y="0" width="646" height="191.407" style="fill: none; stroke-width: 0px;"/>
    </clipPath>
  </defs>
  <g style="clip-path: url(#clippath);">
    <g style="clip-path: url(#clippath-1);">
      <path d="M622.074,191.407H23.926c-13.159,0-23.926-10.767-23.926-23.926V23.926C0,10.767,10.767,0,23.926,0h598.148c13.159,0,23.926,10.767,23.926,23.926v143.556c0,13.159-10.767,23.926-23.926,23.926" style="stroke-width: 0px;"/>
      <path d="M622.074,3.829c11.083,0,20.098,9.015,20.098,20.098v143.555c0,11.082-9.015,20.098-20.098,20.098H23.926c-11.082,0-20.098-9.015-20.098-20.098V23.927C3.828,12.844,12.843,3.829,23.926,3.829h598.148ZM622.074,0H23.926C10.767,0,0,10.768,0,23.927v143.555c0,13.159,10.767,23.926,23.926,23.926h598.148c13.159,0,23.926-10.767,23.926-23.926V23.927C646,10.768,635.233,0,622.074,0" style="fill: #a6a5a5; stroke-width: 0px;"/>
      <path d="M326.043,104.083c-11.255,0-20.428,8.561-20.428,20.356,0,11.714,9.173,20.351,20.428,20.351s20.428-8.637,20.428-20.351c0-11.795-9.173-20.356-20.428-20.356M326.043,136.771c-6.168,0-11.489-5.087-11.489-12.331,0-7.326,5.321-12.336,11.489-12.336s11.484,5.01,11.484,12.336c0,7.245-5.316,12.331-11.484,12.331M281.474,104.083c-11.255,0-20.428,8.561-20.428,20.356,0,11.714,9.173,20.351,20.428,20.351s20.433-8.637,20.433-20.351c0-11.795-9.178-20.356-20.433-20.356M281.474,136.771c-6.163,0-11.484-5.087-11.484-12.331,0-7.326,5.321-12.336,11.484-12.336s11.489,5.01,11.489,12.336c0,7.245-5.321,12.331-11.489,12.331M228.464,110.333v8.632h20.658c-.617,4.857-2.235,8.403-4.699,10.867-3.01,3.01-7.714,6.321-15.959,6.321-12.724,0-22.667-10.25-22.667-22.974s9.944-22.969,22.667-22.969c6.862,0,11.872,2.694,15.571,6.163l6.092-6.087c-5.168-4.933-12.025-8.714-21.663-8.714-17.423,0-32.07,14.188-32.07,31.606s14.647,31.611,32.07,31.611c9.403,0,16.495-3.086,22.045-8.867,5.704-5.704,7.479-13.719,7.479-20.198,0-2.005-.153-3.852-.464-5.393h-29.06ZM445.271,117.037c-1.699-4.551-6.862-12.953-17.423-12.953-10.484,0-19.193,8.25-19.193,20.356,0,11.408,8.632,20.351,20.194,20.351,9.331,0,14.724-5.704,16.963-9.02l-6.938-4.627c-2.316,3.393-5.474,5.627-10.025,5.627s-7.786-2.082-9.867-6.163l27.213-11.26-.924-2.311ZM417.517,123.822c-.23-7.867,6.092-11.872,10.638-11.872,3.551,0,6.556,1.771,7.556,4.316l-18.193,7.556ZM395.39,143.556h8.944v-59.824h-8.944v59.824ZM380.743,108.634h-.306c-2.005-2.388-5.857-4.551-10.714-4.551-10.178,0-19.504,8.943-19.504,20.433,0,11.408,9.326,20.275,19.504,20.275,4.857,0,8.709-2.158,10.714-4.627h.306v2.928c0,7.79-4.158,11.949-10.867,11.949-5.474,0-8.867-3.929-10.255-7.245l-7.785,3.239c2.235,5.398,8.173,12.025,18.04,12.025,10.484,0,19.351-6.168,19.351-21.198v-36.544h-8.484v3.316ZM370.493,136.771c-6.168,0-11.331-5.163-11.331-12.255,0-7.168,5.163-12.413,11.331-12.413,6.092,0,10.867,5.244,10.867,12.413,0,7.092-4.776,12.255-10.867,12.255M487.161,83.737h-21.395v59.82h8.924v-22.663h12.47c9.896,0,19.624-7.168,19.624-18.581s-9.728-18.576-19.624-18.576M487.39,112.568h-12.7v-20.509h12.7c6.675,0,10.465,5.532,10.465,10.255,0,4.637-3.79,10.255-10.465,10.255M542.573,103.978c-6.465,0-13.164,2.847-15.935,9.154l7.929,3.311c1.694-3.311,4.847-4.388,8.159-4.388,4.618,0,9.312,2.771,9.389,7.695v.617c-1.617-.924-5.082-2.306-9.312-2.306-8.542,0-17.241,4.694-17.241,13.465,0,8.006,7.005,13.159,14.853,13.159,6.006,0,9.312-2.689,11.394-5.847h.306v4.618h8.618v-22.935c0-10.618-7.924-16.542-18.16-16.542M541.496,136.761c-2.928,0-7.005-1.464-7.005-5.082,0-4.618,5.077-6.383,9.465-6.383,3.924,0,5.771.847,8.159,2-.694,5.541-5.465,9.465-10.618,9.465M592.133,105.285l-10.236,25.936h-.306l-10.623-25.936h-9.618l15.93,36.248-9.082,20.165h9.312l24.553-56.412h-9.929ZM511.709,143.556h8.929v-59.82h-8.929v59.82Z" style="fill: #fff; stroke-width: 0px;"/>
      <path d="M99.136,92.948l-50.948,54.073c.005.009.005.024.01.033,1.565,5.871,6.924,10.192,13.289,10.192,2.546,0,4.934-.689,6.981-1.895l.163-.096,57.346-33.09-26.84-29.218Z" style="fill: #ea4435; stroke-width: 0px;"/>
      <path d="M150.676,83.741l-.048-.033-24.758-14.351-27.893,24.821,27.993,27.984,24.625-14.207c4.316-2.335,7.25-6.886,7.25-12.13,0-5.216-2.89-9.743-7.168-12.083" style="fill: #f9bc15; stroke-width: 0px;"/>
      <path d="M48.187,44.393c-.306,1.129-.469,2.316-.469,3.541v95.551c0,1.225.163,2.412.474,3.536l52.694-52.69-52.699-49.938Z" style="fill: #547dbf; stroke-width: 0px;"/>
      <path d="M99.512,95.709l26.366-26.362-57.279-33.209c-2.082-1.249-4.512-1.967-7.111-1.967-6.364,0-11.733,4.331-13.298,10.207,0,.005-.005.009-.005.014l51.326,51.316Z" style="fill: #33a851; stroke-width: 0px;"/>
    </g>
    <g>
      <path d="M206.023,61.432c-2.359-1.388-4.212-3.268-5.558-5.642-1.347-2.373-2.02-4.988-2.02-7.848s.673-5.475,2.02-7.847c1.346-2.373,3.198-4.253,5.558-5.642,2.358-1.388,4.981-2.081,7.868-2.081s5.502.693,7.848,2.081c2.345,1.389,4.19,3.269,5.537,5.642,1.346,2.372,2.018,4.989,2.018,7.847s-.673,5.475-2.018,7.848c-1.347,2.373-3.192,4.254-5.537,5.642-2.346,1.388-4.961,2.081-7.848,2.081s-5.51-.693-7.868-2.081ZM219.366,57.748c1.651-.958,2.956-2.29,3.913-3.997.958-1.707,1.436-3.643,1.436-5.808s-.479-4.101-1.436-5.808c-.957-1.706-2.262-3.039-3.913-3.996-1.651-.958-3.477-1.437-5.475-1.437s-3.823.479-5.475,1.437c-1.651.957-2.955,2.29-3.913,3.996-.957,1.707-1.436,3.643-1.436,5.808s.479,4.101,1.436,5.808c.958,1.707,2.262,3.039,3.913,3.997,1.651.957,3.477,1.436,5.475,1.436s3.823-.479,5.475-1.436Z" style="fill: #fff; stroke-width: 0px;"/>
      <path d="M235.248,33.04h11.157c1.582,0,3.053.347,4.413,1.04,1.359.694,2.436,1.644,3.227,2.852.791,1.207,1.186,2.546,1.186,4.017s-.368,2.755-1.103,3.852c-.735,1.097-1.714,1.935-2.935,2.519v.208c1.555.527,2.79,1.402,3.706,2.623.915,1.222,1.373,2.664,1.373,4.329,0,1.639-.423,3.088-1.27,4.351-.847,1.264-1.984,2.248-3.414,2.956-1.43.708-2.99,1.061-4.683,1.061h-11.657v-29.808ZM246.197,45.57c1.388,0,2.498-.423,3.33-1.269.833-.846,1.249-1.824,1.249-2.935s-.41-2.074-1.228-2.893c-.819-.818-1.881-1.228-3.186-1.228h-6.536v8.326h6.37ZM246.905,58.601c1.442,0,2.601-.437,3.476-1.311s1.312-1.922,1.312-3.144-.451-2.275-1.353-3.164c-.902-.888-2.103-1.332-3.602-1.332h-6.911v8.951h7.078Z" style="fill: #fff; stroke-width: 0px;"/>
      <path d="M267.719,37.369h-8.368v-4.329h21.274v4.329h-8.326v25.478h-4.579v-25.478Z" style="fill: #fff; stroke-width: 0px;"/>
      <path d="M285.371,33.04h18.068v4.329h-13.489v8.41h12.156v4.329h-12.156v8.409h13.489v4.33h-18.068v-29.808Z" style="fill: #fff; stroke-width: 0px;"/>
      <path d="M309.849,33.04h10.449c1.804,0,3.435.389,4.892,1.165,1.457.777,2.608,1.86,3.456,3.248.846,1.388,1.269,2.955,1.269,4.704,0,1.998-.645,3.768-1.935,5.308-1.291,1.54-2.908,2.575-4.851,3.101l-.042.208,8.202,11.823v.25h-5.287l-7.952-11.698h-3.622v11.698h-4.579v-29.808ZM320.173,46.944c1.443,0,2.657-.458,3.644-1.374.984-.915,1.477-2.066,1.477-3.455,0-1.276-.451-2.394-1.353-3.352-.901-.957-2.102-1.436-3.601-1.436h-5.912v9.616h5.745Z" style="fill: #fff; stroke-width: 0px;"/>
      <path d="M344.943,33.04h5.412l13.488,21.897h.25l-.25-5.745v-16.152h4.538v29.808h-4.746l-14.154-23.022h-.25l.25,5.745v17.277h-4.538v-29.808Z" style="fill: #fff; stroke-width: 0px;"/>
      <path d="M381.953,61.432c-2.359-1.388-4.212-3.268-5.558-5.642-1.347-2.373-2.02-4.988-2.02-7.848s.673-5.475,2.02-7.847c1.346-2.373,3.198-4.253,5.558-5.642,2.358-1.388,4.981-2.081,7.868-2.081s5.502.693,7.848,2.081c2.345,1.389,4.191,3.269,5.537,5.642,1.346,2.372,2.019,4.989,2.019,7.847s-.673,5.475-2.019,7.848c-1.347,2.373-3.192,4.254-5.537,5.642-2.346,1.388-4.961,2.081-7.848,2.081s-5.51-.693-7.868-2.081ZM395.296,57.748c1.651-.958,2.956-2.29,3.913-3.997.958-1.707,1.436-3.643,1.436-5.808s-.479-4.101-1.436-5.808c-.957-1.706-2.262-3.039-3.913-3.996-1.651-.958-3.477-1.437-5.475-1.437s-3.823.479-5.475,1.437c-1.651.957-2.955,2.29-3.913,3.996-.957,1.707-1.436,3.643-1.436,5.808s.479,4.101,1.436,5.808c.958,1.707,2.262,3.039,3.913,3.997,1.651.957,3.477,1.436,5.475,1.436s3.823-.479,5.475-1.436Z" style="fill: #fff; stroke-width: 0px;"/>
    </g>
  </g>
</svg>