<svg xmlns="http://www.w3.org/2000/svg" width="140" height="68.64" viewBox="0 0 140 68.64">
  <g id="eda" transform="translate(-30 -142.204)">
    <path id="Path_37" data-name="Path 37" d="M113.985,325.4H109.5v8.207h4.581V333.1h-3.945v-3.34h3.754v-.541h-3.754v-3.276h3.849Z" transform="translate(-54.21 -124.919)" fill="#fff"/>
    <rect id="Rectangle_2604" data-name="Rectangle 2604" width="0.573" height="8.207" transform="translate(61.079 200.481)" fill="#fff"/>
    <path id="Path_38" data-name="Path 38" d="M134.368,336.031a1.805,1.805,0,0,1,1.781-1.591c.923,0,1.5.509,1.718,1.591Zm4.2.477a2.382,2.382,0,0,0-2.386-2.608,2.532,2.532,0,0,0-2.481,2.736,2.685,2.685,0,0,0,2.7,2.863,3.109,3.109,0,0,0,2.068-.732v-.636a2.94,2.94,0,0,1-2,.8,2.171,2.171,0,0,1-2.163-2.449h4.263Z" transform="translate(-70.712 -130.716)" fill="#fff"/>
    <path id="Path_39" data-name="Path 39" d="M155.94,334.155a4.257,4.257,0,0,0-1.431-.254,2.641,2.641,0,0,0-2.609,2.895,2.547,2.547,0,0,0,2.64,2.736,3.869,3.869,0,0,0,1.5-.286v-.6a3.3,3.3,0,0,1-1.463.318,2,2,0,0,1-2.068-2.227,2.053,2.053,0,0,1,2.036-2.259,2.908,2.908,0,0,1,1.4.35Z" transform="translate(-83.122 -130.716)" fill="#fff"/>
    <path id="Path_40" data-name="Path 40" d="M167.336,328.6h-.191l-.382.509v1.272H165.3v.477h1.463v3.881A1.123,1.123,0,0,0,168,335.885a5.157,5.157,0,0,0,.636-.1,2.451,2.451,0,0,0,.477-.191v-.509a1.954,1.954,0,0,1-.986.255c-.8,0-.8-.35-.8-1.272v-3.213h1.527v-.477h-1.527V328.6Z" transform="translate(-92.26 -127.102)" fill="#fff"/>
    <path id="Path_41" data-name="Path 41" d="M183.522,334.536a1.843,1.843,0,0,0-1.241-.636c-.6,0-1.241.509-1.877,1.527h-.032V334H179.8V339.4h.573V336c.6-.986,1.209-1.559,1.718-1.559.286,0,.573.159,1.082.6Z" transform="translate(-102.147 -130.716)" fill="#fff"/>
    <path id="Path_42" data-name="Path 42" d="M193.6,333.607h.573V328.2H193.6Zm0-7.221h.573V325.4H193.6Z" transform="translate(-111.557 -124.919)" fill="#fff"/>
    <path id="Path_43" data-name="Path 43" d="M203.74,334.155a4.257,4.257,0,0,0-1.431-.254,2.641,2.641,0,0,0-2.608,2.895,2.547,2.547,0,0,0,2.64,2.736,3.869,3.869,0,0,0,1.5-.286v-.6a3.3,3.3,0,0,1-1.463.318,2,2,0,0,1-2.068-2.227,2.053,2.053,0,0,1,2.036-2.259,2.908,2.908,0,0,1,1.4.35Z" transform="translate(-115.717 -130.716)" fill="#fff"/>
    <path id="Path_44" data-name="Path 44" d="M216.5,333.607h.573V328.2H216.5Zm0-7.221h.573V325.4H216.5Z" transform="translate(-127.173 -124.919)" fill="#fff"/>
    <path id="Path_45" data-name="Path 45" d="M226.826,332.653a2.279,2.279,0,0,1-1.463.509,2.216,2.216,0,0,1-2.259-2.29,2.089,2.089,0,0,1,2.131-2.195,2.682,2.682,0,0,1,1.591.509Zm.573-7.253h-.573v3.117a3.365,3.365,0,0,0-1.591-.445,2.674,2.674,0,0,0-2.736,2.8,2.711,2.711,0,0,0,2.736,2.8,2.412,2.412,0,0,0,1.591-.541v.414h.573Z" transform="translate(-131.264 -124.919)" fill="#fff"/>
    <path id="Path_46" data-name="Path 46" d="M244.749,338.354a2.144,2.144,0,0,1-1.5.7.984.984,0,0,1-1.082-.891c0-.923,1.177-1.559,2.577-1.5v1.686Zm1.463.127a2.492,2.492,0,0,1-.763.477c-.1,0-.127-.064-.127-.286V335.3c0-1.145-1.018-1.4-1.686-1.4a3.079,3.079,0,0,0-1.75.573v.6a2.646,2.646,0,0,1,1.654-.7c.8,0,1.209.382,1.209,1.113v.7c-1.591.064-3.149.573-3.149,1.972a1.4,1.4,0,0,0,1.463,1.368,2.6,2.6,0,0,0,1.686-.668c.064.541.127.668.382.668.223,0,.445-.1.986-.477l.1-.064Z" transform="translate(-144.288 -130.716)" fill="#fff"/>
    <path id="Path_47" data-name="Path 47" d="M262.226,332.653a2.279,2.279,0,0,1-1.463.509,2.216,2.216,0,0,1-2.259-2.29,2.089,2.089,0,0,1,2.131-2.195,2.682,2.682,0,0,1,1.591.509Zm.573-7.253h-.573v3.117a3.365,3.365,0,0,0-1.591-.445,2.8,2.8,0,0,0,0,5.6,2.412,2.412,0,0,0,1.591-.541v.414h.573Z" transform="translate(-155.403 -124.919)" fill="#fff"/>
    <path id="Path_48" data-name="Path 48" d="M277.868,336.031a1.805,1.805,0,0,1,1.781-1.591c.923,0,1.5.509,1.718,1.591Zm4.2.477a2.382,2.382,0,0,0-2.386-2.608,2.532,2.532,0,0,0-2.481,2.736,2.685,2.685,0,0,0,2.7,2.863,3.109,3.109,0,0,0,2.068-.732v-.636a2.94,2.94,0,0,1-2,.8,2.171,2.171,0,0,1-2.163-2.449h4.263Z" transform="translate(-168.563 -130.716)" fill="#fff"/>
    <path id="Path_49" data-name="Path 49" d="M310.126,332.653a2.279,2.279,0,0,1-1.463.509,2.216,2.216,0,0,1-2.259-2.29,2.089,2.089,0,0,1,2.131-2.195,2.683,2.683,0,0,1,1.591.509Zm.573-7.253h-.573v3.117a3.365,3.365,0,0,0-1.591-.445,2.674,2.674,0,0,0-2.736,2.8,2.711,2.711,0,0,0,2.736,2.8,2.412,2.412,0,0,0,1.591-.541v.414h.573Z" transform="translate(-188.065 -124.919)" fill="#fff"/>
    <path id="Path_50" data-name="Path 50" d="M330,336.8a2.135,2.135,0,1,1-2.131-2.259A2.135,2.135,0,0,1,330,336.8m.6,0a2.752,2.752,0,1,0-2.736,2.8,2.692,2.692,0,0,0,2.736-2.8" transform="translate(-201.226 -130.784)" fill="#fff"/>
    <path id="Path_51" data-name="Path 51" d="M348.813,334.445a2.749,2.749,0,0,0-1.431-.445,1.6,1.6,0,0,0-1.75,1.5c0,1.718,2.8,1.336,2.8,2.64,0,.541-.477.923-1.145.923a3.34,3.34,0,0,1-1.686-.509v.573a2.9,2.9,0,0,0,1.622.477A1.634,1.634,0,0,0,349,338.1c0-1.877-2.8-1.368-2.8-2.672a1.05,1.05,0,0,1,1.145-.923,2.693,2.693,0,0,1,1.5.541v-.6Z" transform="translate(-215.205 -130.784)" fill="#fff"/>
    <path id="Path_52" data-name="Path 52" d="M371.526,330.167h-3.531l1.75-3.849Zm-1.591-4.867h-.35l-3.786,8.271h.668l1.3-2.831h4.008l1.3,2.831h.668Z" transform="translate(-228.979 -124.851)" fill="#fff"/>
    <path id="Path_53" data-name="Path 53" d="M396.635,338.708a3.3,3.3,0,0,1-1.463.318A2,2,0,0,1,393.1,336.8a2.053,2.053,0,0,1,2.036-2.259,2.908,2.908,0,0,1,1.4.35v-.636a4.257,4.257,0,0,0-1.431-.254,2.64,2.64,0,0,0-2.609,2.895,2.5,2.5,0,0,0,2.068,2.672l-.191.7c.509,0,.732.159.732.477,0,.445-.477.509-1.177.445l-.064.382c.891.191,1.718-.1,1.718-.859a.78.78,0,0,0-.732-.763l.1-.35a.542.542,0,0,0,.223.032,3.869,3.869,0,0,0,1.5-.286v-.636Z" transform="translate(-247.185 -130.784)" fill="#fff"/>
    <path id="Path_54" data-name="Path 54" d="M413.1,336.8a2.135,2.135,0,1,1-2.131-2.259A2.135,2.135,0,0,1,413.1,336.8m.6,0a2.752,2.752,0,1,0-2.736,2.8,2.692,2.692,0,0,0,2.736-2.8" transform="translate(-257.891 -130.784)" fill="#fff"/>
    <path id="Path_55" data-name="Path 55" d="M433.222,334.536a1.843,1.843,0,0,0-1.241-.636c-.6,0-1.241.509-1.877,1.527h-.032V334H429.5V339.4h.573V336c.6-.986,1.209-1.559,1.718-1.559.286,0,.573.159,1.082.6Z" transform="translate(-272.415 -130.716)" fill="#fff"/>
    <path id="Path_56" data-name="Path 56" d="M441.9,336.031a1.805,1.805,0,0,1,1.781-1.591c.922,0,1.5.509,1.718,1.591Zm4.167.477a2.382,2.382,0,0,0-2.386-2.608,2.532,2.532,0,0,0-2.481,2.736,2.685,2.685,0,0,0,2.7,2.863,3.109,3.109,0,0,0,2.068-.732v-.636a2.94,2.94,0,0,1-2,.8,2.171,2.171,0,0,1-2.163-2.449h4.263Z" transform="translate(-280.393 -130.716)" fill="#fff"/>
    <path id="Path_57" data-name="Path 57" d="M462.613,334.445a2.749,2.749,0,0,0-1.432-.445,1.6,1.6,0,0,0-1.75,1.5c0,1.718,2.8,1.336,2.8,2.64,0,.541-.477.923-1.145.923a3.34,3.34,0,0,1-1.686-.509v.573a2.9,2.9,0,0,0,1.622.477,1.634,1.634,0,0,0,1.781-1.5c0-1.877-2.8-1.368-2.8-2.672a1.05,1.05,0,0,1,1.145-.923,2.693,2.693,0,0,1,1.5.541v-.6Z" transform="translate(-292.804 -130.784)" fill="#fff"/>
    <path id="Path_58" data-name="Path 58" d="M30,189.872s8.207,14.951,34.515,11.293c34.451-4.8,40.177-32.352,6.362-35.565,11.993,5.98,14.983,21.536-3.308,26.753C41.229,199.892,30,189.872,30,189.872" transform="translate(0 -15.953)" fill="#ffd000"/>
    <path id="Path_59" data-name="Path 59" d="M57.073,174.936a10.751,10.751,0,0,1-8.08-11.293c.573-17.719,33.561-18.959,40.4-14.06-8.334-12.438-50.07-9.543-51.6,11.675-1.177,15.81,19.277,13.679,19.277,13.679" transform="translate(-5.282)" fill="#ffd000"/>
    <path id="Path_60" data-name="Path 60" d="M109.5,224.2h13.106v3.913h-9.289V234.7h8.971v3.881h-8.971v6.808h9.575V249.3H109.5Z" transform="translate(-54.21 -55.912)" fill="#fff"/>
    <path id="Path_61" data-name="Path 61" d="M169.834,228.113h-4.517v17.305h4.676c6.871,0,8.43-5.758,8.43-8.653,0-4.708-2.64-8.653-8.589-8.653m.541,21.186H161.5V224.2h8.843c8.3,0,11.993,6.617,11.993,12.534,0,6.458-4.517,12.565-11.961,12.565" transform="translate(-89.669 -55.912)" fill="#fff"/>
    <path id="Path_62" data-name="Path 62" d="M180.558,233.479l-6.458-7.221a12.49,12.49,0,0,0,3.913-5.058h13.424c-1.05,4.39-4.74,8.843-10.879,12.279" transform="translate(-98.26 -53.867)" fill="#ffd000"/>
    <path id="Path_63" data-name="Path 63" d="M237.365,237.956l-2.99-7.476-2.768,7.476ZM233.071,223.8h2.672l10.116,25.226h-3.945l-2.927-7.157h-8.875l-2.768,7.157H223.4Z" transform="translate(-131.878 -55.639)" fill="#fff"/>
  </g>
</svg>
